<!-- Placeholder PWA icon (swap for final art later): the brand shield from
     favicon.svg centered on a zinc-950 rounded square. -->
<svg xmlns="http://www.w3.org/2000/svg" width="192" height="192" viewBox="0 0 192 192" fill="none">
  <rect width="192" height="192" rx="36" fill="#09090B"/>
  <g transform="translate(36 28.5) scale(1.2)">
    <path d="M 25 28 Q 50 8 75 28" stroke="#00A859" stroke-width="7" stroke-linecap="round"/>
    <path d="M 12 32 C 12 65 30 90 50 98 C 70 90 88 65 88 32 L 74 36 C 70 60 60 80 50 86 C 40 80 30 60 26 36 Z" fill="#004B36"/>
    <circle cx="50" cy="52" r="12" stroke="#00A859" stroke-width="4"/>
    <circle cx="50" cy="52" r="4" fill="#00A859"/>
    <line x1="50" y1="30" x2="50" y2="36" stroke="#00A859" stroke-width="4" stroke-linecap="round"/>
    <line x1="50" y1="68" x2="50" y2="74" stroke="#00A859" stroke-width="4" stroke-linecap="round"/>
    <line x1="30" y1="52" x2="36" y2="52" stroke="#00A859" stroke-width="4" stroke-linecap="round"/>
    <line x1="64" y1="52" x2="70" y2="52" stroke="#00A859" stroke-width="4" stroke-linecap="round"/>
  </g>
</svg>
